<svg xmlns="http://www.w3.org/2000/svg" viewBox="0 0 128 128"><style>.st0{fill:#fff}</style><g id="Layer_1"><path class="st0" d="M32.1 113.8c-.9 0-1.8.6-2.2 1.4-.1.2-.2.4-.2.7 0 1.9.9 3.3 2.5 3.3 1.4 0 2.3-1.1 2.3-2.8s-1-2.6-2.4-2.6zM33 15.5V11c-.5-.9-1.3-1.4-2.3-1.4-.8 0-1.5.3-1.9 1-.5.6-.7 1.6-.7 2.8 0 1.1.2 2 .7 2.6.5.6 1.1.9 1.9.9 1.1 0 1.9-.5 2.3-1.4zM59.9 54.2c0-2.3-.7-4.1-2.1-5.3-1.4-1.2-3.4-1.9-6-1.9h-7.5v14.2h7.6c2.4 0 4.4-.6 5.8-1.9 1.5-1.3 2.2-3 2.2-5.1zM21.5 16.5c.5-.3.8-.6 1-1.1v-2h-1.3c-2.1 0-3.1.6-3.1 1.8 0 .5.2.9.5 1.2.4.3.8.4 1.3.4.7.1 1.2-.1 1.6-.3zM12.1 10.7c.5-.4.8-1 .8-1.8s-.2-1.4-.7-1.9c-.5-.4-1.2-.6-2.2-.6H7.4v5H10c.9 0 1.6-.2 2.1-.7zM75 72c0 1.5.5 2.7 1.5 3.5 1 .8 2.3 1.3 3.8 1.3s2.9-.4 4.2-1.2c1.3-.8 2.3-1.8 2.9-3v-5.7h-3.7c-5.8 0-8.7 1.7-8.7 5.1z"/><path class="st0" d="M.1 0L0 128h70.7L128 77.3V.1L.1 0zM52 8.4h1.6v1.1c.7-.8 1.7-1.3 2.9-1.3 1.4 0 2.3.5 2.8 1.6.3-.5.7-.8 1.3-1.1.5-.3 1.1-.4 1.9-.4 2.1 0 3.2 1.1 3.3 3.4v6.6h-1.7v-6.5c0-.7-.2-1.2-.5-1.6s-.9-.6-1.6-.6c-.6 0-1.1.2-1.5.6-.4.4-.6.9-.7 1.5v6.5H58v-6.4c0-1.4-.7-2.1-2.1-2.1-1.1 0-1.8.5-2.3 1.4v7.1H52V8.4zm-10.2 0h1.7v6.3c0 1.5.6 2.2 1.8 2.2 1.3 0 2.1-.5 2.6-1.4V8.4h1.7v9.8H48v-1c-.7.8-1.6 1.1-2.9 1.1-1 0-1.8-.3-2.4-.9s-.8-1.5-.8-2.7V8.4zm-4.2-3.3c.2-.2.4-.3.7-.3s.6.1.7.3c.2.2.3.4.3.7s-.1.5-.3.7c-.2.2-.4.3-.7.3s-.6-.1-.7-.3c-.2-.2-.2-.4-.2-.7s0-.5.2-.7zm1.5 3.3v9.8h-1.7V8.4h1.7zM5.6 5H10c1.5 0 2.6.3 3.4 1 .8.7 1.2 1.7 1.2 3 0 .8-.2 1.5-.7 2.1-.4.6-1.1 1.1-1.9 1.4l3.1 5.6v.1h-1.9l-2.9-5.3H7.4v5.3H5.6V5zm3.3 104h-2v12.2h2v1H5.6V108h3.3v1zm8.5 11.2H10v-1l1.2-1.2c3-2.8 4.3-4.3 4.3-6.1 0-1.2-.6-2.3-2.3-2.3-1.1 0-1.9.5-2.5 1l-.5-1.1c.8-.7 1.9-1.2 3.3-1.2 2.5 0 3.5 1.7 3.5 3.4 0 2.1-1.6 3.9-4 6.2l-.9.9h5.2v1.4zm-.9-104.8c0-1 .4-1.8 1.2-2.4.8-.6 1.9-.8 3.3-.8h1.6v-.8c0-.6-.2-1.1-.5-1.4-.3-.3-.9-.5-1.5-.5s-1.1.2-1.5.5-.6.7-.6 1.1h-1.7c0-.5.2-1 .5-1.4.3-.5.8-.8 1.4-1.1s1.2-.4 2-.4c1.1 0 2 .3 2.7.8.6.6 1 1.3 1 2.3v4.5c0 .9.1 1.6.3 2.1v.1h-1.8c-.1-.2-.2-.5-.2-1-.8.8-1.7 1.2-2.8 1.2-1 0-1.8-.3-2.4-.8s-1-1.1-1-2zm10.1 104.8h-7.4v-1l1.2-1.2c3-2.8 4.3-4.3 4.3-6.1 0-1.2-.6-2.3-2.3-2.3-1.1 0-1.9.5-2.5 1l-.5-1.1c.8-.7 1.9-1.2 3.3-1.2 2.5 0 3.5 1.7 3.5 3.4 0 2.1-1.6 3.9-4 6.2l-.9.9h5.2v1.4zm.9-103.3c-.7-.9-1.1-2.1-1.1-3.6v-.1c0-1.5.4-2.7 1.1-3.6.7-.9 1.6-1.4 2.8-1.4 1.1 0 2.1.4 2.7 1.2V4.2h1.7v13.9h-1.5l-.1-1c-.7.8-1.6 1.2-2.8 1.2-1.1 0-2.1-.4-2.8-1.4zm4.7 103.5c-2.5 0-4.1-1.9-4.1-4.9 0-2.3.8-4.1 2-5.2 1-.9 2.2-1.5 3.7-1.7.5-.1.9-.1 1.1-.1v1.3c-.3 0-.7 0-1.2.1-2.5.4-3.8 2.2-4 4.1h.1c.6-.7 1.5-1.3 2.8-1.3 2 0 3.5 1.5 3.5 3.7 0 2-1.5 4-3.9 4zm8.1 1.8H37v-1h2V109h-2v-1h3.3v14.2zm26.2-41.9h-5.3l-8.1-15.1h-8.8v15.1h-4.9V43h12.4c4.2 0 7.4 1 9.7 2.9 2.3 1.9 3.4 4.7 3.4 8.4 0 2.3-.6 4.4-1.9 6.1-1.3 1.7-3 3-5.2 3.9L66.5 80v.3zm26.6 0h-5c-.3-.5-.5-1.5-.7-2.9-2.2 2.3-4.8 3.4-7.9 3.4-2.7 0-5-.8-6.7-2.3-1.8-1.5-2.6-3.5-2.6-5.9 0-2.9 1.1-5.1 3.3-6.7 2.2-1.6 5.3-2.4 9.3-2.4h4.6v-2.2c0-1.7-.5-3-1.5-4s-2.5-1.5-4.4-1.5c-1.7 0-3.1.4-4.3 1.3s-1.7 1.9-1.7 3.1h-4.8c0-1.4.5-2.7 1.5-4 1-1.3 2.3-2.3 4-3.1 1.7-.8 3.5-1.1 5.6-1.1 3.2 0 5.7.8 7.5 2.4 1.8 1.6 2.8 3.8 2.8 6.6v12.8c0 2.5.3 4.6 1 6.1v.4z"/><g><path class="st0" d="M103 117.3c0-1.5.9-2.5 2.3-3.1v-.1c-1.3-.6-1.8-1.6-1.8-2.6 0-1.8 1.6-3.1 3.6-3.1 2.2 0 3.4 1.4 3.4 2.9 0 1-.5 2-1.9 2.7v.1c1.4.6 2.3 1.6 2.3 3 0 2-1.7 3.4-3.9 3.4-2.5-.1-4-1.5-4-3.2zm6.2-.1c0-1.4-1-2.1-2.5-2.5-1.4.4-2.1 1.3-2.1 2.4-.1 1.2.8 2.2 2.3 2.2 1.4 0 2.3-.9 2.3-2.1zm-4.3-5.8c0 1.2.9 1.8 2.2 2.1 1-.3 1.8-1.1 1.8-2.1 0-.9-.6-1.9-2-1.9-1.3.1-2 .9-2 1.9zM112.1 117.3c0-1.5.9-2.5 2.3-3.1v-.1c-1.3-.6-1.8-1.6-1.8-2.6 0-1.8 1.5-3.1 3.6-3.1 2.2 0 3.4 1.4 3.4 2.9 0 1-.5 2-1.9 2.7v.1c1.4.6 2.3 1.6 2.3 3 0 2-1.7 3.4-3.9 3.4-2.5-.1-4-1.5-4-3.2zm6.3-.1c0-1.4-1-2.1-2.5-2.5-1.4.4-2.1 1.3-2.1 2.4-.1 1.2.8 2.2 2.3 2.2 1.4 0 2.3-.9 2.3-2.1zm-4.3-5.8c0 1.2.9 1.8 2.2 2.1 1-.3 1.8-1.1 1.8-2.1 0-.9-.6-1.9-2-1.9-1.3.1-2 .9-2 1.9z"/></g></g></svg>